<svg xmlns:xlink="http://www.w3.org/1999/xlink" version="1.0" xmlns="http://www.w3.org/2000/svg" width="300" height="300" viewBox="0 0 234.000000 300.000000" preserveAspectRatio="xMidYMid " class="svg" style="width: 256px; height: 256px;">
<g transform="translate(0.000000,300.000000) scale(0.100000,-0.100000)" fill="#050505" stroke="none">
<path class="node" id="node1" d="M1957 2954 l-25 -37 26 -21 c15 -12 70 -53 122 -91 52 -38 118 -86
146 -106 l52 -38 26 37 c14 21 26 42 26 48 0 14 -106 115 -165 156 -55 39
-150 88 -169 88 -7 0 -24 -16 -39 -36z" fill="#8A2BE2" style=""></path>
<path stroke-width="20px" class="node" id="node2" d="M240 2827 c-90 -30 -149 -82 -196 -170 l-39 -72 0 -1155 0 -1155 32
-67 c39 -83 89 -132 173 -172 l65 -31 795 0 795 0 62 29 c76 35 143 103 178
182 l25 57 -2 871 -3 871 -65 -90 c-35 -49 -79 -109 -97 -133 l-33 -44 0 -666
c0 -416 -4 -681 -10 -703 -15 -52 -49 -99 -99 -134 l-43 -30 -706 0 -707 0
-46 29 c-25 16 -59 50 -75 75 l-29 46 -3 1035 c-1 569 0 1049 3 1066 10 57 64
124 119 150 l51 24 530 0 530 0 57 89 c32 48 60 95 64 105 6 15 -43 16 -627
16 -629 -1 -635 -1 -699 -23z" fill="#050505" style="fill: black;"></path>
<path class="node" id="node3" d="M1857 2813 c-15 -21 -23 -40 -19 -44 26 -25 328 -239 337 -239 5 0
21 17 34 37 l24 37 -23 15 c-13 9 -51 36 -84 61 -117 87 -233 170 -238 170 -3
0 -17 -17 -31 -37z" fill="#C70100" style=""></path>
<path class="node" id="node4" d="M1699 2598 c-79 -111 -164 -228 -244 -338 -93 -128 -270 -372 -285
-394 -8 -11 -40 -55 -70 -96 -31 -41 -77 -105 -103 -142 l-47 -66 89 -30 89
-30 19 21 c17 19 60 77 126 168 21 29 145 198 271 369 276 373 378 514 382
525 5 11 -126 115 -145 115 -4 0 -41 -46 -82 -102z" fill="#FE00CB" style=""></path>
<path class="node" id="node5" d="M1955 2533 c-10 -15 -63 -88 -119 -163 -56 -75 -159 -217 -231 -315
-171 -233 -224 -305 -334 -455 -50 -68 -90 -129 -87 -136 13 -35 99 -155 105
-148 4 5 52 70 106 144 54 74 128 176 165 225 37 50 116 157 176 239 60 82
143 194 184 250 117 159 200 274 200 279 0 5 -103 83 -129 96 -16 9 -22 6 -36
-16z" fill="#FFFF00" style=""></path>
<path class="node" id="node6" d="M881 1285 c-24 -119 -42 -217 -40 -219 5 -4 357 188 371 202 7 7 -6
36 -42 90 l-53 80 -86 31 c-48 17 -91 31 -97 31 -6 0 -30 -97 -53 -215z" fill="#1A00FE" style=""></path>
</g>
<g transform="translate(0.000000,300.000000) scale(0.100000,-0.100000)" fill="#A9A9A9" stroke="none">


</g>
</svg>